<?xml version="1.0" encoding="utf-8"?>
<svg viewBox="496.2999572753906 511.60003662109375 402.6000061035156 402.60009765625" width="402.6000061035156" height="402.60009765625" xmlns="http://www.w3.org/2000/svg"><g transform="matrix(1, 0, 0, 1, 0, 0)"><path d="M 898.899979 712.900024 A 201.300003 201.300003 0 0 1 697.599976 914.200027 A 201.300003 201.300003 0 0 1 496.299973 712.900024 A 201.300003 201.300003 0 0 1 697.599976 511.600021 A 201.300003 201.300003 0 0 1 898.899979 712.900024 Z" class="st1" style="fill: rgb(165, 223, 249);" transform="matrix(1, 0, 0, 1, 0, 0)"/><path class="st3" d="M898.9,712.9c0-5.8-0.3-11.5-0.7-17.2c-0.2-0.2-0.4-0.3-0.5-0.5c-0.1-0.1-0.2-0.2-0.3-0.4&#10;&#9;&#9;c-0.8-0.9-1.6-1.7-2.5-2.5c-0.1-0.1-0.2-0.2-0.3-0.4c-0.8-0.9-1.6-1.7-2.5-2.5c-0.1-0.1-0.2-0.2-0.3-0.4c-0.8-0.9-1.6-1.7-2.5-2.5&#10;&#9;&#9;c-0.1-0.1-0.2-0.2-0.3-0.4c-0.8-0.9-1.6-1.7-2.5-2.5c-0.1-0.1-0.2-0.2-0.3-0.4c-0.8-0.9-1.6-1.7-2.5-2.5c-0.1-0.1-0.2-0.2-0.3-0.4&#10;&#9;&#9;c-0.8-0.9-1.6-1.7-2.5-2.5c-0.1-0.1-0.2-0.2-0.3-0.4c-0.8-0.9-1.6-1.7-2.5-2.5c-0.1-0.1-0.2-0.2-0.3-0.4c-0.8-0.9-1.6-1.7-2.5-2.5&#10;&#9;&#9;c-0.1-0.1-0.2-0.2-0.3-0.4c-0.8-0.9-1.6-1.7-2.5-2.5c-0.1-0.1-0.2-0.2-0.3-0.4c-0.8-0.9-1.6-1.7-2.5-2.5c-0.1-0.1-0.2-0.2-0.3-0.4&#10;&#9;&#9;c-0.8-0.9-1.6-1.7-2.5-2.5c-0.1-0.1-0.2-0.2-0.3-0.4c-0.8-0.9-1.6-1.7-2.5-2.5c-0.1-0.1-0.2-0.2-0.3-0.4c-0.8-0.9-1.6-1.7-2.5-2.5&#10;&#9;&#9;c-0.1-0.1-0.2-0.2-0.3-0.4c-0.8-0.9-1.6-1.7-2.5-2.5c-0.1-0.1-0.2-0.2-0.3-0.4c-0.8-0.9-1.6-1.7-2.5-2.5c-0.1-0.1-0.2-0.2-0.3-0.4&#10;&#9;&#9;c-0.8-0.9-1.6-1.7-2.5-2.5c-0.1-0.1-0.2-0.2-0.3-0.4c-0.8-0.9-1.6-1.7-2.5-2.5c-0.1-0.1-0.2-0.2-0.3-0.4c-0.8-0.9-1.6-1.7-2.5-2.5&#10;&#9;&#9;c-0.1-0.1-0.2-0.2-0.3-0.4c-0.8-0.9-1.6-1.7-2.5-2.5c-0.1-0.1-0.2-0.2-0.3-0.4c-0.8-0.9-1.6-1.7-2.5-2.5c-0.1-0.1-0.2-0.2-0.3-0.4&#10;&#9;&#9;c-0.8-0.9-1.6-1.7-2.5-2.5c-0.1-0.1-0.2-0.2-0.3-0.4c-0.8-0.9-1.6-1.7-2.5-2.5c-0.1-0.1-0.2-0.2-0.3-0.4c-0.8-0.9-1.6-1.7-2.5-2.5&#10;&#9;&#9;c-0.1-0.1-0.2-0.2-0.3-0.4c-0.8-0.9-1.6-1.7-2.5-2.5c-0.1-0.1-0.2-0.2-0.3-0.4c-0.8-0.9-1.6-1.7-2.5-2.5c-0.1-0.1-0.2-0.2-0.3-0.4&#10;&#9;&#9;c-0.8-0.9-1.6-1.7-2.5-2.5c-0.1-0.1-0.2-0.2-0.3-0.4c-0.8-0.9-1.6-1.7-2.5-2.5c-0.1-0.1-0.2-0.2-0.3-0.4c-0.8-0.9-1.6-1.7-2.5-2.5&#10;&#9;&#9;c-0.1-0.1-0.2-0.2-0.3-0.4c-0.8-0.9-1.6-1.7-2.5-2.5c-0.1-0.1-0.2-0.2-0.3-0.4c-0.8-0.9-1.6-1.7-2.5-2.5c-0.1-0.1-0.2-0.2-0.3-0.4&#10;&#9;&#9;c-0.8-0.9-1.6-1.7-2.5-2.5c-0.1-0.1-0.2-0.2-0.3-0.4c-0.8-0.9-1.6-1.7-2.5-2.5c-0.1-0.1-0.2-0.2-0.3-0.4c-0.8-0.9-1.6-1.7-2.5-2.5&#10;&#9;&#9;c-0.1-0.1-0.2-0.2-0.3-0.4c-0.8-0.9-1.6-1.7-2.5-2.5c-0.1-0.1-0.2-0.2-0.3-0.4c-0.8-0.9-1.6-1.7-2.5-2.5c-0.1-0.1-0.2-0.2-0.3-0.4&#10;&#9;&#9;c-0.8-0.9-1.6-1.7-2.5-2.5c-0.1-0.1-0.2-0.2-0.3-0.4c-0.8-0.9-1.6-1.7-2.5-2.5c-0.1-0.1-0.2-0.2-0.3-0.4c-0.8-0.9-1.6-1.7-2.5-2.5&#10;&#9;&#9;c-0.1-0.1-0.2-0.2-0.3-0.4c-0.8-0.9-1.6-1.7-2.5-2.5c-0.1-0.1-0.2-0.2-0.3-0.4c-0.8-0.9-1.6-1.7-2.5-2.5c-0.1-0.1-0.2-0.2-0.3-0.4&#10;&#9;&#9;c-0.8-0.9-1.6-1.7-2.5-2.5c-0.1-0.1-0.2-0.2-0.3-0.4c-3.3-3.9-8-6.1-13.1-6.1h-9.6c-0.3-0.2-0.5-0.4-0.8-0.6&#10;&#9;&#9;c-0.8-1.1-1.8-2.1-2.8-2.8c-2-2.8-4.9-4.5-8.1-4.5c-6.1,0-11.1,6.3-11.1,14.1c0,5.4,2.3,10,5.8,12.4c0.8,1.1,1.8,2.1,2.8,2.8&#10;&#9;&#9;c0.8,1.1,1.8,2.1,2.8,2.8c0.8,1.1,1.8,2.1,2.8,2.8c0.8,1.1,1.8,2.1,2.8,2.8c0.8,1.1,1.8,2.1,2.8,2.8c0.8,1.1,1.8,2.1,2.8,2.8&#10;&#9;&#9;c0.8,1.1,1.8,2.1,2.8,2.8c0.8,1.1,1.8,2.1,2.8,2.8c0.8,1.1,1.8,2.1,2.8,2.8c0.3,0.5,0.7,0.9,1.1,1.3l-4.8,27.2&#10;&#9;&#9;c-0.8-1.1-1.7-2-2.8-2.8c-0.8-1.1-1.8-2.1-2.8-2.8c-0.8-1.1-1.8-2.1-2.8-2.8c-0.8-1.1-1.8-2.1-2.8-2.8c-0.8-1.1-1.8-2.1-2.8-2.8&#10;&#9;&#9;c-0.8-1.1-1.8-2.1-2.8-2.8c-0.8-1.1-1.8-2.1-2.8-2.8c-0.8-1.1-1.8-2.1-2.8-2.8c-0.8-1.1-1.8-2.1-2.8-2.8c-0.8-1.1-1.8-2.1-2.8-2.8&#10;&#9;&#9;c-0.8-1.1-1.8-2.1-2.8-2.8c-0.8-1.1-1.8-2.1-2.8-2.8c-0.8-1.1-1.8-2.1-2.8-2.8c-0.8-1.1-1.8-2.1-2.8-2.8c-0.8-1.1-1.8-2.1-2.8-2.8&#10;&#9;&#9;c-0.8-1.1-1.8-2.1-2.8-2.8c-0.8-1.1-1.8-2.1-2.8-2.8c-0.8-1.1-1.8-2.1-2.8-2.8c-0.8-1.1-1.8-2.1-2.8-2.8c-0.8-1.1-1.8-2.1-2.8-2.8&#10;&#9;&#9;c-0.8-1.1-1.8-2.1-2.8-2.8c-0.8-1.1-1.8-2.1-2.8-2.8c-0.8-1.1-1.8-2.1-2.8-2.8c-0.8-1.1-1.8-2.1-2.8-2.8c-0.8-1.1-1.8-2.1-2.8-2.8&#10;&#9;&#9;c-0.8-1.1-1.8-2.1-2.8-2.8c-0.8-1.1-1.8-2.1-2.8-2.8c-2-2.8-4.9-4.5-8.1-4.5c-4.4,0-8.1,3.3-9.9,8H659c-5.1,0-9.8,2.2-13.1,6.1&#10;&#9;&#9;c-3.2,3.9-4.6,9-3.7,14l15.3,86.2c2.3,12.7,8.5,23.7,17.4,32c0.9,1,1.8,1.9,2.8,2.8c0.9,1,1.8,1.9,2.8,2.8c0.9,1,1.8,1.9,2.8,2.8&#10;&#9;&#9;c0.9,1,1.8,1.9,2.8,2.8c0.9,1,1.8,1.9,2.8,2.8c0.9,1,1.8,1.9,2.8,2.8c0.9,1,1.8,1.9,2.8,2.8c0.9,1,1.8,1.9,2.8,2.8&#10;&#9;&#9;c0.9,1,1.8,1.9,2.8,2.8c0.9,1,1.8,1.9,2.8,2.8c0.9,1,1.8,1.9,2.8,2.8c0.4,0.5,0.9,0.9,1.3,1.4v46c0,21.2-12.5,39.4-30.5,47.9&#10;&#9;&#9;c-0.6-0.6-1.2-1.2-1.9-1.8c-0.9-1-1.8-2-2.8-2.8c-0.9-1-1.8-2-2.8-2.8c-0.9-1-1.8-2-2.8-2.8c-0.9-1-1.8-2-2.8-2.8&#10;&#9;&#9;c-0.9-1-1.8-2-2.8-2.8c-0.9-1-1.8-2-2.8-2.8c-0.9-1-1.8-2-2.8-2.8c-0.9-1-1.8-2-2.8-2.8c-0.9-1-1.8-2-2.8-2.8c-0.9-1-1.8-2-2.8-2.8&#10;&#9;&#9;c-0.9-1-1.8-2-2.8-2.8c-0.9-1-1.8-2-2.8-2.8c-0.9-1-1.8-2-2.8-2.8c-0.9-1-1.8-2-2.8-2.8c-0.9-1-1.8-2-2.8-2.8c-0.9-1-1.8-2-2.8-2.8&#10;&#9;&#9;c-0.9-1-1.8-2-2.8-2.8c-0.9-1-1.8-2-2.8-2.8c-0.9-1-1.8-2-2.8-2.8c-0.9-1-1.8-2-2.8-2.8c-0.9-1-1.8-2-2.8-2.8c-0.9-1-1.8-2-2.8-2.8&#10;&#9;&#9;c-0.9-1-1.8-2-2.8-2.8c-0.9-1-1.8-2-2.8-2.8c-4.1-4.9-10.4-8.1-17.3-8.1c-12.5,0-22.6,10.1-22.6,22.6c0,7,3.2,13.2,8.1,17.3&#10;&#9;&#9;c0.9,1,1.8,2,2.8,2.8c0.9,1,1.8,2,2.8,2.8c0.9,1,1.8,2,2.8,2.8c0.9,1,1.8,2,2.8,2.8c0.8,1,1.8,1.9,2.8,2.8&#10;&#9;&#9;c3.7,9.4,9.4,17.8,16.7,24.6c0.9,1,1.8,1.9,2.8,2.8c0.9,1,1.8,1.9,2.8,2.8c0.9,1,1.8,1.9,2.8,2.8c0.9,1,1.8,1.9,2.8,2.8&#10;&#9;&#9;c0.9,1,1.8,1.9,2.8,2.8c0.9,1,1.8,1.9,2.8,2.8c0.9,1,1.8,1.9,2.8,2.8c0.9,1,1.8,1.9,2.8,2.8c0.9,1,1.8,1.9,2.8,2.8&#10;&#9;&#9;c0.9,1,1.8,1.9,2.8,2.8c0.9,1,1.8,1.9,2.8,2.8c0.9,1,1.8,1.9,2.8,2.8c0.9,1,1.8,1.9,2.8,2.8c0.9,1,1.8,1.9,2.8,2.8&#10;&#9;&#9;c0.9,1,1.8,1.9,2.8,2.8c0.9,1,1.8,1.9,2.8,2.8c0.9,1,1.8,1.9,2.8,2.8c0.9,1,1.8,1.9,2.8,2.8c0.9,1,1.8,1.9,2.8,2.8&#10;&#9;&#9;c0.9,1,1.8,1.9,2.8,2.8c0.9,1,1.8,1.9,2.8,2.8c0.9,1,1.8,1.9,2.8,2.8c0.9,1,1.8,1.9,2.8,2.8c0.9,1,1.8,1.9,2.8,2.8&#10;&#9;&#9;c0.9,1,1.8,1.9,2.8,2.8c0.9,1,1.8,1.9,2.8,2.8c0.4,0.4,0.8,0.8,1.2,1.2c5.7,0.5,11.4,0.7,17.2,0.7&#10;&#9;&#9;C808.8,914.2,898.9,824.1,898.9,712.9z" style="fill: rgb(91, 203, 245);" transform="matrix(1, 0, 0, 1, 0, 0)"/><path class="st7" d="M782.1,579.6c-3.3-3.9-8-6.1-13.1-6.1h-23.2v12.3H769c1.4,0,2.7,0.6,3.6,1.7c0.9,1.1,1.3,2.5,1,3.9&#10;&#9;&#9;&#9;l-15.3,86.2c-3.8,21.6-22.5,37.2-44.3,37.4c-21.9-0.2-40.5-15.8-44.3-37.4l-15.3-86.2c-0.2-1.4,0.1-2.8,1-3.9&#10;&#9;&#9;&#9;c0.9-1.1,2.2-1.7,3.6-1.7h23.2v-12.3H659c-5.1,0-9.8,2.2-13.1,6.1c-3.2,3.9-4.6,9-3.7,14l15.3,86.2c4.5,25.2,24.8,44,49.6,47.1&#10;&#9;&#9;&#9;v63.2c0,29.2-23.7,52.9-52.9,52.9h-2.1c-29.2,0-52.9-23.7-52.9-52.9v-4.4h-14.4v4.4c0,37.1,30.2,67.3,67.3,67.3h2.1&#10;&#9;&#9;&#9;c37.1,0,67.3-30.2,67.3-67.3v-63.3c24.5-3.4,44.5-22.1,48.9-47l15.3-86.2C786.7,588.6,785.3,583.5,782.1,579.6z" style="fill: rgb(89, 74, 66);" transform="matrix(1, 0, 0, 1, 0, 0)"/><path d="M 612.500025 783.200012 A 22.6 22.6 0 0 1 589.900024 805.800013 A 22.6 22.6 0 0 1 567.300024 783.200012 A 22.6 22.6 0 0 1 589.900024 760.600012 A 22.6 22.6 0 0 1 612.500025 783.200012 Z" class="st0" style="fill: rgb(241, 242, 242);" transform="matrix(1, 0, 0, 1, 0, 0)"/><path d="M 605.800024 783.200012 A 15.9 15.9 0 0 1 589.900024 799.100012 A 15.9 15.9 0 0 1 574.000025 783.200012 A 15.9 15.9 0 0 1 589.900024 767.300013 A 15.9 15.9 0 0 1 605.800024 783.200012 Z" class="st6" style="fill: rgb(0, 174, 239);" transform="matrix(1, 0, 0, 1, 0, 0)"/><path class="st6" d="M707.8,707.5h13c1.1,0,2.1,0.9,2.1,2.1v23.2c0,1.1-0.9,2.1-2.1,2.1h-13c-1.1,0-2.1-0.9-2.1-2.1v-23.2&#10;&#9;&#9;&#9;C705.8,708.4,706.7,707.5,707.8,707.5z" style="fill: rgb(0, 174, 239);" transform="matrix(1, 0, 0, 1, 0, 0)"/><path d="M 691.1 579.700012 A 11.1 14.1 0 0 1 680 593.800013 A 11.1 14.1 0 0 1 668.9 579.700012 A 11.1 14.1 0 0 1 680 565.600012 A 11.1 14.1 0 0 1 691.1 579.700012 Z" class="st6" style="fill: rgb(0, 174, 239);" transform="matrix(1, 0, 0, 1, 0, 0)"/><path d="M 758.699976 579.700012 A 11.1 14.1 0 0 1 747.599976 593.800013 A 11.1 14.1 0 0 1 736.499975 579.700012 A 11.1 14.1 0 0 1 747.599976 565.600012 A 11.1 14.1 0 0 1 758.699976 579.700012 Z" class="st6" style="fill: rgb(0, 174, 239);" transform="matrix(1, 0, 0, 1, 0, 0)"/><path d="M 689.899976 579.700012 A 6.3 10.3 0 0 1 683.599976 590.000012 A 6.3 10.3 0 0 1 677.299975 579.700012 A 6.3 10.3 0 0 1 683.599976 569.400012 A 6.3 10.3 0 0 1 689.899976 579.700012 Z" class="st0" style="fill: rgb(241, 242, 242);" transform="matrix(1, 0, 0, 1, 0, 0)"/><path d="M 750.3 579.700012 A 6.3 10.3 0 0 1 744 590.000012 A 6.3 10.3 0 0 1 737.7 579.700012 A 6.3 10.3 0 0 1 744 569.400012 A 6.3 10.3 0 0 1 750.3 579.700012 Z" class="st0" style="fill: rgb(241, 242, 242);" transform="matrix(1, 0, 0, 1, 0, 0)"/></g></svg>